# xmcd
#
# Track frame offsets: 
#        150
#        18714
#        36811
#        56136
#        73694
#        97384
#        123610
#        146226
#        162476
#
# Disc length: 2484 seconds
#
# Revision: 0
# Processed by: cddbd v1.5.2PL0 Copyright (c) Steve Scherf et al.
# Submitted via: ExactAudioCopy v1.0b3
#
DISCID=9109b209
DTITLE=Tamikrest - Tamotaït
DYEAR=2020
DGENRE=Desert Blues
TTITLE0=Awnafin
TTITLE1=Azawad
TTITLE2=Amzagh
TTITLE3=Amidinin Tad Adouniya
TTITLE4=As Sastnan Hidjan
TTITLE5=Timtarin
TTITLE6=Tihoussay
TTITLE7=Anha Achal Wad Namda
TTITLE8=Tabsit
EXTD=
EXTT0=
EXTT1=
EXTT2=
EXTT3=
EXTT4=
EXTT5=
EXTT6=
EXTT7=
EXTT8=
PLAYORDER=
